<svg width="120" height="100" viewBox="0 0 120 100" fill="none" xmlns="http://www.w3.org/2000/svg">
<g clip-path="url(#clip0_204_1022)">
<path d="M117.086 85.0389C102.832 109.575 29.5262 102.506 7.63641 74.2262C-14.2534 45.9468 14.2543 -3.54212 50.907 0.200738C87.5598 3.9436 131.848 60.5024 117.086 85.0389Z" fill="#FFEDD5"/>
<path d="M83.9084 43.6005L82.1295 77.7768H38.7949L37.0158 43.6005L60.4621 28.6401L83.9084 43.6005Z" fill="#EFEFEF"/>
<path d="M92.0685 44.4659L90.858 46.3643C90.4401 47.0195 89.5703 47.2118 88.9152 46.7939L83.9086 43.6002L60.462 28.6401L37.0157 43.6005L32.0091 46.7941C31.354 47.212 30.4842 47.0197 30.0663 46.3646L28.8555 44.4657C28.4379 43.8108 28.6302 42.941 29.2851 42.5234C32.054 40.7564 57.6542 24.4241 60.462 22.6328C68.7064 27.8913 91.6838 42.552 91.6384 42.5231C92.2938 42.941 92.4861 43.8108 92.0685 44.4659Z" fill="#FC5D3D"/>
<path d="M83.9084 43.6005L82.1295 77.7768H38.7949L37.0158 43.6005L60.4621 28.6401L83.9084 43.6005Z" fill="#72C2E9"/>
<path d="M45.918 75.4787H40.9449C40.5973 75.4787 40.3106 75.1948 40.3106 74.8472C40.3106 74.4971 40.5973 74.2129 40.9449 74.2129H45.918C46.2681 74.2129 46.5523 74.4971 46.5523 74.8472C46.5523 75.1948 46.2684 75.4787 45.918 75.4787Z" fill="#C5E5FE"/>
<path d="M75.0054 75.4813C74.6553 75.4813 74.3711 75.1946 74.3711 74.8442C74.3711 74.4969 74.6553 74.2099 75.0054 74.2099H78.8801L79.994 45.9673C80.0069 45.6172 80.2985 45.3381 80.6512 45.3609C81.0059 45.3713 81.2758 45.672 81.2601 46.0181L80.1259 74.8696C80.1105 75.2121 79.8341 75.4783 79.4916 75.4783L75.0054 75.4813Z" fill="#C5E5FE"/>
<path d="M75.0062 77.7768H45.9177V61.9066C45.9177 53.874 52.4294 47.3623 60.4619 47.3623C68.4945 47.3623 75.0062 53.874 75.0062 61.9066V77.7768Z" fill="#7D7B79"/>
<path d="M65.2377 63.6541V66.0856C63.9236 67.2393 62.2655 67.9251 60.4622 67.9251C58.659 67.9251 57.0006 67.2396 55.6868 66.0856V63.6541C55.6868 61.4883 57.4418 59.7305 59.6105 59.7305H61.314C63.4826 59.7305 65.2377 61.4883 65.2377 63.6541Z" fill="#F8E5B2"/>
<path d="M62.1495 60.9753C62.1495 61.9072 61.3939 62.6628 60.462 62.6628C59.53 62.6628 58.7744 61.9072 58.7744 60.9753C58.7744 60.0433 59.53 59.7302 60.462 59.7302C61.3939 59.7302 62.1495 60.0433 62.1495 60.9753Z" fill="#B34F33"/>
<path d="M54.7169 54.5347L53.3726 61.4095C53.3272 61.6449 53.2427 61.8626 53.125 62.0587C52.6932 62.8019 51.8231 63.2277 50.932 63.0526C49.7781 62.826 49.0412 61.6903 49.3038 60.5455C49.6048 59.2208 49.5566 56.7832 54.7169 54.5347Z" fill="#B34F33"/>
<path d="M69.992 63.0528C69.1009 63.2282 68.2339 62.8052 67.799 62.062C67.796 62.062 67.799 62.059 67.799 62.059C67.6813 61.8626 67.5966 61.6452 67.5514 61.4097L66.2072 54.5349C71.2526 56.7332 71.2865 59.0772 71.6199 60.5457C71.8856 61.6964 71.1412 62.8265 69.992 63.0528Z" fill="#B34F33"/>
<path d="M66.2886 64.9756C66.9501 64.133 67.4697 63.1452 67.7988 62.0608C67.7988 62.0577 67.7988 62.0577 67.7988 62.0577C67.6811 61.8613 67.5963 61.6439 67.5512 61.4082L66.2069 54.5334C64.7934 53.3886 62.7423 52.9324 60.4617 52.9324C58.1812 52.9324 56.1303 53.3886 54.7166 54.5334L53.3723 61.4082C53.3269 61.6436 53.2424 61.8613 53.1247 62.0577C53.4479 63.115 53.9462 64.0784 54.5866 64.9061C51.8319 67.111 50.1403 70.4909 50.1403 74.1642V74.9005C50.1403 76.4891 51.428 77.7767 53.0166 77.7767H67.9067C69.4953 77.7767 70.7829 76.4891 70.7829 74.9005V74.27C70.7834 70.5729 69.0708 67.1777 66.2886 64.9756Z" fill="#EDC21D"/>
<path d="M65.6898 39.9286C66.2327 39.5802 66.5935 38.9726 66.5935 38.2796C66.5935 37.1975 65.7161 36.3201 64.634 36.3201C63.4742 36.3201 62.5387 37.3332 62.6925 38.5308H58.2309C58.3849 37.3312 57.4474 36.3201 56.2894 36.3201C55.2072 36.3201 54.3298 37.1975 54.3298 38.2796C54.3298 38.9728 54.6906 39.5802 55.2336 39.9286C54.6906 40.277 54.3298 40.8847 54.3298 41.5776C54.3298 42.6597 55.2072 43.5371 56.2894 43.5371C57.4844 43.5371 58.4283 42.4659 58.2185 41.2442H62.7051C62.4956 42.4646 63.4377 43.5371 64.6342 43.5371C65.7164 43.5371 66.5938 42.6597 66.5938 41.5776C66.5935 40.8847 66.233 40.277 65.6898 39.9286Z" fill="#EFEFEF"/>
<path d="M37.5123 36.5212C37.5123 36.5212 37.5097 36.5211 37.5097 36.5239C37.2154 36.7114 37.1291 37.105 37.3169 37.3993C37.5064 37.6959 37.8979 37.7829 38.1923 37.5921C38.4866 37.4044 38.5729 37.0111 38.3851 36.7168C38.2049 36.4326 37.7987 36.341 37.5123 36.5212Z" fill="black"/>
<path d="M91.9802 41.989C91.3484 41.5858 65.1725 24.8836 60.802 22.099C60.599 21.967 60.325 21.967 60.122 22.099C57.7473 23.6132 42.1199 33.5817 39.6435 35.1609C39.3492 35.3487 39.2629 35.742 39.4507 36.0363C39.6334 36.323 40.0394 36.4141 40.3261 36.2317C58.2112 24.8222 45.7614 32.7622 60.462 23.3854C60.4952 23.4064 91.2644 43.0326 91.2951 43.057H91.2979C91.6412 43.2752 91.7711 43.7418 91.5339 44.1252L90.3233 46.0228C90.1003 46.3735 89.6238 46.4945 89.2551 46.259L60.802 28.105C60.599 27.9756 60.325 27.9756 60.122 28.105L31.6688 46.2593C31.3012 46.4942 30.8242 46.3747 30.6006 46.0231L29.3904 44.1254C29.162 43.7692 29.2617 43.2891 29.6263 43.0572C30.4329 42.5427 35.5377 39.2853 36.0583 38.9544C36.3527 38.7667 36.4389 38.3734 36.2512 38.0791C36.0685 37.7923 35.6625 37.701 35.3758 37.8834C34.7265 38.3001 33.8387 38.8659 28.9438 41.989C27.9931 42.5926 27.715 43.8466 28.3196 44.8054L29.5324 46.7058C30.1477 47.6746 31.4187 47.926 32.3488 47.3275L36.4394 44.7176L38.1618 77.8105C38.1795 78.1479 38.4561 78.4118 38.7935 78.4118H82.1304C82.4679 78.4118 82.7445 78.1479 82.7622 77.8105L83.6173 61.3714C83.635 61.0212 83.3661 60.7218 83.0185 60.7041C82.6582 60.6886 82.3715 60.9553 82.3512 61.3003V61.3057L81.5266 77.1434H75.6401V61.907C75.6401 53.5091 68.8389 46.7289 60.4622 46.7289C56.1811 46.7289 52.1793 48.5076 49.321 51.598C49.0825 51.8542 49.0977 52.2577 49.354 52.4962C49.6027 52.7243 50.0238 52.7065 50.2522 52.4604C52.8783 49.6237 56.6005 47.9973 60.4622 47.9973C68.1563 47.9973 74.3714 54.2198 74.3714 61.9067V77.1432H70.6045C71.112 76.5345 71.418 75.7527 71.418 74.9002V74.2709C71.418 72.7156 71.1338 71.1932 70.5731 69.7497C70.4488 69.4351 70.0682 69.2651 69.751 69.3892C69.4222 69.5168 69.2623 69.8901 69.3907 70.2087C69.8931 71.5078 70.1494 72.8729 70.1494 74.2709V74.9002C70.1468 76.1331 69.1421 77.1406 67.9064 77.1432H63.1875C63.4814 75.8179 64.6668 74.8215 66.0821 74.8215C66.4929 74.8215 66.7963 74.4397 66.6989 74.0375C66.5289 73.3423 66.2521 72.675 65.8794 72.0534C65.7068 71.7641 65.3009 71.6601 65.0091 71.8354C64.7173 72.0092 64.6059 72.4002 64.7931 72.7057V72.7082C64.9735 73.0051 65.1258 73.3172 65.2473 73.6369C63.4913 73.9858 62.1676 75.4102 61.9001 77.1434H59.0249C58.759 75.4099 57.435 73.9858 55.6767 73.6369C55.801 73.3172 55.9532 73.0026 56.1308 72.7057C56.311 72.404 56.2146 72.0155 55.9152 71.8354C55.6016 71.6499 55.2192 71.7588 55.0449 72.0534C54.6694 72.675 54.3953 73.3423 54.2253 74.0375C54.1282 74.4364 54.4283 74.8215 54.8419 74.8215C56.2575 74.8215 57.4426 75.8179 57.7367 77.1432H53.0173C51.7817 77.1406 50.7769 76.1333 50.7744 74.9002V74.1644C50.7744 70.9775 52.1344 67.9328 54.5067 65.804C55.9563 67.4576 58.1094 68.5595 60.4567 68.5595H60.4668C62.7133 68.5595 64.8261 67.5583 66.3635 65.8649C66.5005 65.9867 66.6324 66.1085 66.7593 66.2354C67.0031 66.4713 67.4215 66.4662 67.6575 66.2227C67.9011 65.9715 67.896 65.5706 67.6448 65.3245C67.4852 65.1689 67.3198 65.0175 67.1505 64.8695C67.5009 64.3562 67.7998 63.8094 68.0449 63.2332C68.6397 63.6483 69.3671 63.8201 70.1138 63.6752C71.6139 63.3786 72.5867 61.8953 72.2375 60.4021C71.8998 58.9176 71.9244 56.4462 66.5345 53.9861C65.104 52.8687 63.0647 52.3006 60.462 52.298C57.859 52.3006 55.8195 52.8687 54.389 53.9861C49.1 56.3851 49.0472 58.8133 48.6864 60.4047C48.336 61.8423 49.2746 63.3715 50.8101 63.6752C51.5652 63.8173 52.2853 63.6458 52.8808 63.2304C53.1171 63.7843 53.4012 64.3085 53.7316 64.7995C51.1042 67.1229 49.506 70.4843 49.506 74.1644V74.9002C49.506 75.7527 49.812 76.5345 50.3194 77.1432H46.5523V61.9067C46.5523 60.0393 46.9152 58.2249 47.6332 56.5175C47.7702 56.195 47.618 55.8223 47.2957 55.6876C46.9786 55.5534 46.5955 55.7107 46.4635 56.025C45.6795 57.8902 45.2837 59.8668 45.2837 61.9067V77.1432H39.3972L37.668 43.9336L60.462 29.3914L83.2557 43.9351L82.6151 56.2359C82.5973 56.5911 82.8761 56.9032 83.2494 56.9032C83.5868 56.9032 83.8634 56.6393 83.8812 56.3021L84.4843 44.7191L88.5726 47.3277C89.5198 47.9326 90.7823 47.6652 91.3913 46.7061L92.6041 44.8082C93.2171 43.8296 92.917 42.584 91.9802 41.989ZM64.6026 65.7819C63.5133 66.6659 62.3147 67.1361 61.0963 67.2556V63.2066C62.2049 62.8909 62.9051 61.8065 62.7684 60.7101C63.8513 61.2498 64.6008 62.366 64.6026 63.6547V65.7819ZM61.5147 60.9756C61.5147 61.5538 61.043 62.026 60.462 62.0283C59.8835 62.0257 59.409 61.5538 59.409 60.9756C59.425 60.6683 59.5166 60.3641 60.4417 60.3641H60.4823C61.4008 60.3641 61.499 60.6663 61.5147 60.9756ZM59.8277 63.2066V67.2556C58.5334 67.1287 57.3746 66.637 56.3211 65.7802V63.6549C56.3229 62.3662 57.0727 61.2501 58.1556 60.7104C58.0191 61.8012 58.7151 62.8892 59.8277 63.2066ZM71.0019 60.6863C71.1894 61.4972 70.6581 62.2762 69.8703 62.4294C69.1103 62.5761 68.3281 62.0795 68.1751 61.2902L67.0792 55.6828C70.7474 57.7263 70.5982 58.9094 71.0019 60.6863ZM65.6297 54.8881L66.9295 61.5312C66.9648 61.7213 67.0394 61.9491 67.1145 62.1176C66.8253 62.9757 66.4058 63.765 65.8712 64.4707V63.6549C65.8712 61.1405 63.8262 59.0954 61.3143 59.0954H59.6092C57.0973 59.0954 55.0522 61.1405 55.0522 63.6549V64.4674C54.5197 63.7686 54.1015 62.9775 53.809 62.1145C53.8805 61.9593 53.9592 61.7253 53.9967 61.5284L55.2933 54.8883C56.4655 54.0231 58.2441 53.5667 60.4361 53.5667C62.1988 53.5667 64.2157 53.847 65.6297 54.8881ZM51.0509 62.4294C50.2481 62.2726 49.7354 61.4731 49.9218 60.6888C50.3194 58.9333 50.1596 57.7314 53.8447 55.6843L52.7509 61.2854C52.5982 62.0377 51.8857 62.5837 51.0509 62.4294Z" fill="black"/>
<path d="M56.5849 58.8038C56.9351 58.8038 57.2192 58.5196 57.2192 58.1694V57.9183C57.2192 57.5681 56.9351 57.2839 56.5849 57.2839C56.2348 57.2839 55.9506 57.5681 55.9506 57.9183V58.1694C55.9506 58.5196 56.2348 58.8038 56.5849 58.8038Z" fill="black"/>
<path d="M64.339 58.8038C64.6892 58.8038 64.9734 58.5196 64.9734 58.1694V57.9183C64.9734 57.5681 64.6892 57.2839 64.339 57.2839C63.9886 57.2839 63.7047 57.5681 63.7047 57.9183V58.1694C63.7047 58.5196 63.9886 58.8038 64.339 58.8038Z" fill="black"/>
<path d="M68.4671 67.2022C68.1804 67.3895 68.0916 67.7805 68.2895 68.0801C68.4841 68.3762 68.8807 68.4486 69.1674 68.2603C69.4592 68.0672 69.5378 67.6739 69.3475 67.3849C69.3475 67.3824 69.3475 67.3824 69.3475 67.3796C69.1598 67.0982 68.7513 67.0145 68.4671 67.2022Z" fill="black"/>
<path d="M48.5771 53.4983C48.2904 53.3133 47.8844 53.4019 47.7017 53.6835C47.6992 53.6861 47.6992 53.6861 47.6992 53.6861C47.5122 53.9776 47.5916 54.3754 47.8895 54.564C48.183 54.7548 48.5756 54.6682 48.7648 54.3762C48.7674 54.3737 48.7674 54.3737 48.7674 54.3711C48.9559 54.0781 48.8689 53.6858 48.5771 53.4983Z" fill="black"/>
<path d="M83.1503 58.1693C82.7875 58.1541 82.5005 58.423 82.483 58.7707C82.4663 59.1401 82.7583 59.438 83.1174 59.438C83.4548 59.438 83.7339 59.1741 83.7491 58.8366C83.7692 58.4933 83.5111 58.1911 83.1503 58.1693Z" fill="black"/>
<path d="M64.6329 35.6863C63.3541 35.6863 62.253 36.635 62.068 37.8963H58.8533C58.6706 36.635 57.5694 35.6863 56.2906 35.6863C54.8596 35.6863 53.6949 36.8509 53.6949 38.2794C53.6949 38.8807 53.9055 39.4643 54.2887 39.9286C53.9055 40.393 53.6949 40.9765 53.6949 41.5779C53.6949 43.0064 54.8596 44.171 56.2906 44.171C57.61 44.171 58.7162 43.184 58.8659 41.8798H62.0578C62.2075 43.1842 63.311 44.171 64.6329 44.171C66.0642 44.171 67.2286 43.0064 67.2286 41.5779C67.2286 40.9765 67.018 40.393 66.6349 39.9286C67.018 39.4643 67.2286 38.8807 67.2286 38.2794C67.2288 36.8509 66.0642 35.6863 64.6329 35.6863ZM65.3462 40.4615C65.7318 40.7101 65.9602 41.1262 65.9602 41.5779C65.9577 42.3061 65.3637 42.9023 64.6332 42.9023C63.8616 42.9023 63.193 42.2272 63.329 41.352C63.3978 40.9661 63.0989 40.6086 62.7049 40.6086H58.2189C57.834 40.6086 57.5273 40.9547 57.5922 41.3495C57.7442 42.1348 57.1251 42.9023 56.2906 42.9023C55.5599 42.9023 54.9661 42.3061 54.9636 41.5779C54.9636 41.1262 55.1945 40.7101 55.5776 40.4615C55.9643 40.2143 55.9686 39.6457 55.5776 39.3958C55.1945 39.1474 54.9636 38.7313 54.9636 38.2796C54.9661 37.5514 55.5599 36.9552 56.2906 36.9552C57.0794 36.9552 57.7061 37.6471 57.6024 38.4496C57.5544 38.8328 57.852 39.1652 58.2316 39.1652H62.6922C63.0717 39.1652 63.3704 38.8384 63.3212 38.4443C63.2143 37.6786 63.8218 36.9552 64.6329 36.9552C65.3637 36.9552 65.9577 37.5514 65.9599 38.2796C65.9599 38.7313 65.7316 39.1474 65.3459 39.3958C64.9562 39.645 64.9577 40.2133 65.3462 40.4615Z" fill="black"/>
</g>
<defs>
<clipPath id="clip0_204_1022">
<rect width="120" height="100" fill="white"/>
</clipPath>
</defs>
</svg>
